<?xml version="1.0" encoding="UTF-8" standalone="no"?>
<!-- Created with Inkscape (http://www.inkscape.org/) -->

<svg
   width="1024"
   height="1024"
   viewBox="0 0 270.93333 270.93333"
   version="1.1"
   id="svg5"
   inkscape:version="1.1 (ce6663b3b7, 2021-05-25)"
   sodipodi:docname="panel-eyes-disabled.svg"
   xmlns:inkscape="http://www.inkscape.org/namespaces/inkscape"
   xmlns:sodipodi="http://sodipodi.sourceforge.net/DTD/sodipodi-0.dtd"
   xmlns="http://www.w3.org/2000/svg"
   xmlns:svg="http://www.w3.org/2000/svg">
  <sodipodi:namedview
     id="namedview7"
     pagecolor="#ffffff"
     bordercolor="#111111"
     borderopacity="1"
     inkscape:pageshadow="0"
     inkscape:pageopacity="0"
     inkscape:pagecheckerboard="1"
     inkscape:document-units="mm"
     showgrid="false"
     units="px"
     width="1024px"
     inkscape:zoom="0.49071405"
     inkscape:cx="274.09038"
     inkscape:cy="715.28419"
     inkscape:window-width="1959"
     inkscape:window-height="1163"
     inkscape:window-x="333"
     inkscape:window-y="123"
     inkscape:window-maximized="0"
     inkscape:current-layer="layer1" />
  <defs
     id="defs2" />
  <g
     inkscape:label="Layer 1"
     inkscape:groupmode="layer"
     id="layer1">
    <rect
       style="opacity:1;fill:#4b2165;stroke:none;stroke-width:6.39068;stroke-linecap:round;stroke-linejoin:round;stroke-miterlimit:4;stroke-dasharray:none;fill-opacity:1"
       id="rect15026"
       width="270.93332"
       height="270.93332"
       x="-1.7763568e-15"
       y="-1.7763568e-15"
       ry="41.083221" />
    <path
       style="opacity:1;fill:#000000;stroke:none;stroke-width:0.233092px;stroke-linecap:butt;stroke-linejoin:miter;stroke-opacity:1"
       d="m 14.573845,141.81811 c 39.295021,23.84185 95.684965,29.0013 129.018065,6.14049 40.78402,19.91436 81.00576,17.48394 120.78169,-2.66298 1.92357,0.0206 3.64108,0.3565 2.5473,4.993 -65.55523,29.95369 -93.53847,15.78275 -122.97959,3.32395 -51.482366,23.54641 -97.317987,17.78001 -138.9822338,-9.64049 3.0004245,-1.62547 6.1921728,-2.40192 9.6147688,-2.15397 z"
       id="closed"
       sodipodi:nodetypes="ccccccc" />
    <path
       id="path2517"
       style="color:#000000;fill:#800000;stroke:#666666;stroke-width:1;stroke-linecap:round;stroke-linejoin:round;-inkscape-stroke:none"
       d="m 135.46666,27.461883 c -59.530873,2e-6 -108.00374,48.472872 -108.003743,108.003747 3e-6,59.53088 48.47287,108.00581 108.003743,108.00581 59.53088,0 108.00374,-48.47493 108.00374,-108.00581 0,-59.530875 -48.47286,-108.003745 -108.00374,-108.003747 z m 0,19.999814 c 21.70132,0 41.52594,7.797731 56.84459,20.747053 L 68.209785,192.31022 c -12.949018,-15.319 -20.747053,-35.14355 -20.747053,-56.84459 0,-48.722084 39.281845,-88.003933 88.003928,-88.003933 z m 70.56417,35.311021 c 10.95977,14.674438 17.43976,32.905042 17.43976,52.692912 0,48.72209 -39.28185,88.006 -88.00393,88.006 -19.78829,0 -38.01934,-6.48023 -52.693939,-17.4408 z" />
  </g>
</svg>
